ply
format ascii 1.0
comment Written with hapPLY (https://github.com/nmwsharp/happly)
element vertex 107
property double x
property double y
property double z
element face 31
property list uchar uint vertex_indices
element edge 80
property uint vertex1
property uint vertex2
end_header
0.42366644787068009 0.28849487131346602 0.1221340196535884
0.27896933808248703 0.93251911263983078 0.87941467354487135
0.3775379523282868 0.25426878540346343 0.63152844614577797
0.42242594111253007 0.27878465219727466 0.32006539310646659
0.19212921406159778 0.52537772168075714 0.65834112411541257
0.6383507472845904 0.65005274870469687 0.62218355283591831
0.57060366581702626 0.1331264271183423 0.56162400568913506
0.42276160546523117 0.59813004155156679 0.3207119365552622
0.64006047597857463 0.35585617920071555 0.57176875473601729
0.36523896373501907 0.68789522919142554 0.84543899686456681
0.16661163337863721 0.26200586231230821 0.62674548467437363
0.31638964513490841 0.65155797558085793 0.49931784065123908
0.39852109336386848 0.23182227146272 0.81924243242849359
0.61523327600810362 0.59915619275719545 0.52483867893823677
0.31057967625480798 0.89016810656802781 0.92362307124953857
0.1693346100723688 0.41990372486951766 0.91638585219781055
0.52625603279143585 0.018787712115025751 0.86430972583414423
0.68922208069847257 0.36562335080890451 0.82991305631708889
0.016732626716909022 0.26060238002919478 0.86553048602457749
0.40748636931930726 0.65565510185978748 0.59662136865065607
0.4232196169087637 0.59242112946930825 0.12153316158227498
0.71185079965751552 0.72080715854716804 0.84785854030439989
0.42325160672761064 0.47022393502908605 0.32073818887652034
0.36567085616971107 0.33629904936062172 0.3721323807150691
0.45036245348576909 0.33010807921323715 0.96961948603433024
0.49310461182121806 0.28842214514815412 0.38396703490594497
0.35808257780402913 0.53522152958357583 0.39656096405072971
0.51315025404766368 0.41969095557500008 0.38036247324106059
0.25597500890156594 0.49802700926197924 0.53765857377775939
0.23336903109891929 0.2874280035950052 0.5146060772381521
0.46769179591031801 0.57421560704017871 0.43785686017092651
0.39802998390388572 0.31350379868275907 0.4412028862055849
0.57806792375495986 0.093459048333005321 0.60543162390550009
0.29296692732931084 0.85571995860947836 0.62158924906997015
0.6573175603734267 0.35381227110086655 0.69931021864638887
0.49373495215809421 0.53804209202123709 0.38094207768247285
0.38555778568849808 0.66912353753194409 0.71537566242383721
0.11869693006350768 0.25363776103228031 0.70901634221600229
0.64383661014686333 0.68379263313604488 0.67224411848022292
0.15932986872975807 0.45371122878335268 0.86773672771522714
0.42179123771305893 0.43429596498142359 0.21419744744733657
0.38305879322648562 0.24041690169507335 0.69619738005878984
0.26532198170566812 0.93813081156673517 0.71632309652994741
0.30161559753372036 0.7998443001469755 0.58432418790853058
0.54174929877634004 0.21809378901217044 0.4792125433394418
0.55982756152869129 0.4029922692446245 0.42245278927899638
0.55834830908734889 0.0304416778524794 0.74368892679720033
0.37659242950679905 0.27329112762035607 0.56393893914802973
0.42359060446045993 0.38439473752777564 0.12174738428623845
0.31707189875801317 0.46113007423404201 0.42186614105396492
0.56835283465864894 0.56527455224461232 0.44678120619138867
0.26036181928842528 0.30010704978182334 0.4778045696026163
0.67047210979521021 0.71771729223454483 0.76023163131507721
0.06687488151237285 0.2528883224337391 0.78734688829525257
0.22388438724459547 0.51508747729065696 0.5972668825879901
0.41884558954549711 0.63843779224244446 0.53684108255411922
0.65148105886032759 0.35371503696699413 0.63128235969953173
0.4297035581117809 0.28518444565676665 0.92852923582005997
0.42382578598468523 0.33043319408772859 0.32349501020705829
0.32387649240258187 0.61085841571205624 0.46984275515807311
0.25595045239519182 0.95507209452094022 0.77038073816934238
0.42230781730125522 0.60256358357521533 0.22015695338389987
0.1582469914981019 0.50318734185416869 0.77079685811446697
0.55920114120488096 0.17537154734448826 0.52314788895756814
0.18636427709149175 0.26787911687002308 0.58937062752987723
0.36914241158959565 0.68055319344706811 0.77952523188841094
0.30548897746714404 0.74719992497760435 0.55500018169733933
0.56772380197930716 0.044113756968957585 0.69747062305331076
0.42226043632570009 0.27819501653323742 0.22094200886672033
0.28596481930235079 0.47931937892224913 0.47825374850128433
0.62885387496350298 0.62131616484706242 0.5715005752942165
0.42419817646855823 0.39955805134304528 0.32221416226143684
0.59319631975179321 0.38015811988529502 0.47042862598700674
0.66561674147642824 0.3570905473395557 0.76407390546532383
0.42396039960046356 0.53466824176221628 0.32763863083397876
0.65557508667886988 0.7060989823865168 0.71666437317472786
0.093724009282921447 0.25316483788350552 0.74930948748794335
0.32209404274228393 0.3244052021736431 0.40484988243419762
0.42364731276493456 0.49627807515891309 0.12159466481989617
0.38432336375172976 0.29319242531852185 0.50209187859567961
0.38922005837170648 0.23281841355262151 0.75707717711222011
0.54832166539743421 0.023247620623762046 0.78426662116032275
0.42418940242618286 0.54339266787047757 0.21991929982918415
0.27848047849574864 0.90358809120954731 0.66647415655615794
0.59572951802385343 0.57964103572212256 0.48167850332477646
0.52235115311465863 0.25612037463430687 0.43001291185115853
0.41243034364189513 0.24964144679736486 0.87725449970976099
0.431818615277968 0.60620702409978444 0.48027437866504924
0.4241517293320613 0.33511222665114654 0.21858720766962506
0.17024945045241938 0.51857722223245994 0.71716593363691783
0.20870747915232954 0.276742961692793 0.55324768978118366
0.69086890979932969 0.71987121016322431 0.80422459677805691
0.39990507714153944 0.66043336276532316 0.65562525934951654
0.040872205073649963 0.25511444093010932 0.82480305644861518
0.28942411610276142 0.31205429447181932 0.44204562258023189
0.14163473927402342 0.25710143952595949 0.66839569047624292
0.25951042589148376 0.95539208835709177 0.82471053955343199
0.35182012402984753 0.5576084704649964 0.40960166481782345
0.31257449591621461 0.69544036847065938 0.52653342870986619
0.5373572936170663 0.02063439549852545 0.82340470573791991
0.53430229910391125 0.5502830166003273 0.41487744841159024
0.35714581828742864 0.45467143983891273 0.38178924514997975
0.40789991672324744 0.33037791533715949 0.38242974988056194
0.15490955594332939 0.48154453918990331 0.81939726518723077
0.57570033298642642 0.064366393537461819 0.65113625446667112
0.3339721674178614 0.57449395869524189 0.44025126678349813
0.61977335092032415 0.36519302253585989 0.5180831327904547
3 0 48 88
3 0 68 88
3 3 25 58
3 3 58 68
3 7 30 74
3 7 61 82
3 7 74 82
3 20 61 82
3 20 78 82
3 22 26 74
3 22 26 101
3 22 27 71
3 22 35 74
3 22 40 71
3 22 40 82
3 22 49 101
3 22 71 101
3 22 74 82
3 23 58 71
3 23 58 102
3 23 71 102
3 26 74 97
3 26 97 105
3 31 58 102
3 40 48 78
3 40 48 88
3 40 71 88
3 40 78 82
3 58 68 88
3 58 71 88
3 58 71 102
1 14
1 96
2 41
2 47
4 54
4 89
5 38
5 70
6 32
6 63
8 56
8 106
9 65
10 64
10 95
11 59
11 98
12 80
12 86
13 70
13 84
15 39
16 99
17 73
18 93
19 55
19 92
21 91
23 77
24 57
25 85
27 45
28 54
28 69
29 51
29 90
30 87
31 79
32 104
33 43
33 83
34 56
34 73
35 100
36 65
36 92
37 76
37 95
38 75
39 103
41 80
42 60
42 83
43 66
44 63
44 85
45 72
46 67
46 81
47 79
49 69
50 84
50 100
51 94
52 75
52 91
53 76
53 93
55 87
57 86
59 105
60 96
62 89
62 103
64 90
66 98
67 104
72 106
77 94
81 99
