ply
format ascii 1.0
comment Written with hapPLY (https://github.com/nmwsharp/happly)
element vertex 43
property double x
property double y
property double z
element face 108
property list uchar uint vertex_indices
element edge 0
property uint vertex1
property uint vertex2
end_header
0.30234851002363261 0.8048569011615675 0.14921192637742975
0.28693802872190499 0.50401610967184418 0.15616130809223225
0.17649524186114521 0.20263322511704468 0.10203729725498739
0.35086644185477822 0.11608411604201374 0.20004139989292902
0.076998801665709354 0.74543735106415354 0.19973340324323138
0.22104341025842517 0.94156832047439798 0.19744186893005247
0.16593777166211321 0.1005530809166594 0.19734432156149645
0.2719922579081604 0.60418757374485277 0.15782543584820022
0.31746666093607079 0.38052723099264191 0.15128884682343463
0.30732695965764983 0.18472857031088852 0.092806382865119191
0.42221979830329365 0.77472870818628148 0.16665992252835615
0.20198538179096986 0.3366268092268348 0.15503855315229062
0.18286567160393793 0.7836314630972917 0.15884391357805849
0.3677266005895608 0.12379918297843423 0.22860188653005881
0.21170781670031913 0.6495034913213622 0.099542084227342342
0.19080808128725113 0.67793719755265802 0.25584907918758393
0.33538149720663429 0.087530304737169828 0.29616887691036542
0.16165300209584835 0.20002276095164051 0.19155900071322554
0.32161296800706624 0.70755239120985791 0.2322211317909959
0.26178734007266524 0.2466516834498029 0.16377132785919069
0.22447035274078875 0.92669045693448349 0.23616623097591627
0.43610652848227438 0.052928443511202232 0.2267169215230283
0.22254299444347267 0.45328464553711006 0.14528660067091989
0.17777350590519161 0.10849591656079638 0.24776880704922155
0.38408055749307324 0.81451535609528913 0.16782089490593338
0.19079663483754275 0.97262200851974068 0.24791805747462195
0.1267401405073359 0.69210474128689192 0.20947596567216417
0.12109328803001099 0.060455781972601298 0.24891927850512258
0.25917929580397137 0.54544748539294496 0.15786896132503475
0.22651438201634505 0.85376730320709759 0.17255713294438552
0.36454379562822775 0.07944061398092031 0.18081615022642347
0.3551742273582057 0.27903995167115853 0.17288087539037306
0.10869029309915729 0.79557059375136951 0.15136162384882365
0.19151470408173255 0.052140391923496655 0.16634645552960484
0.33347609163589786 0.71759948395078199 0.17384328301006666
0.31343017489968178 0.27289437257150057 0.12055363253899566
0.36408741656598442 0.1957725827475342 0.19202626012893742
0.099215443708473655 0.77035733901996273 0.1846340255116766
0.22377792218907902 0.94195030007432001 0.28656140652747875
0.29694988414066731 0.7097681842911121 0.11973396272721734
0.25305851718094391 0.3270220877161813 0.16299702408158337
0.25627129371750423 0.10628688261146016 0.22309163630409301
0.40384136935030807 0.098041659115422938 0.27838564679991901
3 0 10 24
3 0 10 34
3 0 12 18
3 0 12 29
3 0 12 39
3 0 18 24
3 0 18 34
3 0 24 34
3 0 34 39
3 1 7 22
3 1 7 28
3 1 8 11
3 1 8 22
3 1 8 40
3 1 11 22
3 1 11 40
3 1 22 28
3 1 22 40
3 2 6 17
3 2 6 19
3 2 11 17
3 2 11 19
3 2 11 40
3 2 17 19
3 2 19 40
3 3 9 19
3 3 9 36
3 3 13 16
3 3 13 21
3 3 13 30
3 3 13 36
3 3 16 41
3 3 19 36
3 3 19 41
3 3 21 30
3 3 36 41
3 4 12 15
3 4 12 26
3 4 12 37
3 4 15 26
3 4 15 37
3 4 26 37
3 5 20 25
3 5 20 29
3 6 17 19
3 6 17 23
3 6 17 27
3 6 17 41
3 6 19 41
3 6 23 27
3 6 23 33
3 6 23 41
3 6 33 41
3 7 12 14
3 7 12 15
3 7 12 18
3 7 12 26
3 7 12 39
3 7 14 22
3 7 14 28
3 7 14 39
3 7 15 18
3 7 15 26
3 7 15 28
3 7 18 34
3 7 22 28
3 7 34 39
3 8 11 22
3 8 11 35
3 8 11 40
3 8 22 40
3 8 31 35
3 8 31 40
3 8 35 40
3 9 19 35
3 9 19 36
3 9 35 36
3 10 24 34
3 11 17 19
3 11 19 35
3 11 19 40
3 11 22 40
3 11 35 40
3 12 14 39
3 12 15 18
3 12 15 26
3 12 15 37
3 12 26 37
3 12 32 37
3 13 16 42
3 13 21 30
3 13 21 42
3 14 22 28
3 15 26 37
3 17 19 41
3 17 23 27
3 17 23 41
3 18 24 34
3 19 31 35
3 19 31 36
3 19 31 40
3 19 35 36
3 19 35 40
3 19 36 41
3 20 25 38
3 23 33 41
3 31 35 36
3 31 35 40
